<svg width="240" height="345" viewBox="0 0 240 345" fill="none" xmlns="http://www.w3.org/2000/svg">
<rect y="5" width="240" height="340" rx="25" fill="#CFFFCC" fill-opacity="0.5"/>
<g filter="url(#filter0_dd_9_26)">
<line x1="60" y1="7.5" x2="180" y2="7.5" stroke="#00A140" stroke-width="9"/>
</g>
<path d="M12.3333 85.5C12.3333 86.9728 13.5272 88.1667 15 88.1667C16.4728 88.1667 17.6667 86.9728 17.6667 85.5C17.6667 84.0272 16.4728 82.8333 15 82.8333C13.5272 82.8333 12.3333 84.0272 12.3333 85.5ZM222.333 85.5C222.333 86.9728 223.527 88.1667 225 88.1667C226.473 88.1667 227.667 86.9728 227.667 85.5C227.667 84.0272 226.473 82.8333 225 82.8333C223.527 82.8333 222.333 84.0272 222.333 85.5ZM15 86H225V85H15V86Z" fill="#00A140"/>
<path d="M58.312 61.616H85.128V64.976H58.312V61.616ZM69.8 63.792H74.12V70.064H69.8V63.792ZM61.448 72.912H82.216V76.336H61.448V72.912ZM61.448 67.44H65.736V73.776H61.448V67.44ZM71.688 47.728C73.8213 47.728 75.688 47.984 77.288 48.496C78.888 48.9867 80.1253 49.7013 81 50.64C81.896 51.5573 82.344 52.6453 82.344 53.904C82.344 55.1413 81.896 56.2187 81 57.136C80.1253 58.0533 78.888 58.768 77.288 59.28C75.688 59.792 73.8213 60.048 71.688 60.048C69.576 60.048 67.72 59.792 66.12 59.28C64.52 58.768 63.272 58.0533 62.376 57.136C61.48 56.2187 61.032 55.1413 61.032 53.904C61.032 52.6453 61.48 51.5573 62.376 50.64C63.272 49.7013 64.52 48.9867 66.12 48.496C67.72 47.984 69.576 47.728 71.688 47.728ZM71.688 51.12C70.4507 51.12 69.3733 51.2267 68.456 51.44C67.56 51.6533 66.856 51.9627 66.344 52.368C65.8533 52.7733 65.608 53.2853 65.608 53.904C65.608 54.48 65.8533 54.9813 66.344 55.408C66.856 55.8347 67.56 56.1547 68.456 56.368C69.3733 56.56 70.4507 56.656 71.688 56.656C72.9467 56.656 74.024 56.56 74.92 56.368C75.8373 56.1547 76.5413 55.8347 77.032 55.408C77.5227 54.9813 77.768 54.48 77.768 53.904C77.768 53.2853 77.5227 52.7733 77.032 52.368C76.5413 51.9627 75.8373 51.6533 74.92 51.44C74.024 51.2267 72.9467 51.12 71.688 51.12ZM87.7815 61.136H114.566V64.496H87.7815V61.136ZM99.0455 56.688H103.302V62.448H99.0455V56.688ZM91.0135 55.344H111.526V58.672H91.0135V55.344ZM91.0135 48.464H111.366V51.824H95.2375V57.456H91.0135V48.464ZM101.062 65.968C104.262 65.968 106.779 66.448 108.614 67.408C110.448 68.3467 111.366 69.6907 111.366 71.44C111.366 73.168 110.448 74.5013 108.614 75.44C106.779 76.4 104.262 76.88 101.062 76.88C97.8615 76.88 95.3442 76.4 93.5095 75.44C91.6962 74.5013 90.7895 73.168 90.7895 71.44C90.7895 69.6907 91.6962 68.3467 93.5095 67.408C95.3442 66.448 97.8615 65.968 101.062 65.968ZM101.062 69.2C99.7388 69.2 98.6295 69.2853 97.7335 69.456C96.8588 69.6053 96.1975 69.8507 95.7495 70.192C95.3015 70.512 95.0775 70.9173 95.0775 71.408C95.0775 71.92 95.3015 72.3467 95.7495 72.688C96.1975 73.008 96.8588 73.2533 97.7335 73.424C98.6295 73.5733 99.7388 73.648 101.062 73.648C102.384 73.648 103.483 73.5733 104.358 73.424C105.254 73.2533 105.926 73.008 106.374 72.688C106.822 72.3467 107.046 71.92 107.046 71.408C107.046 70.9173 106.822 70.512 106.374 70.192C105.926 69.8507 105.254 69.6053 104.358 69.456C103.483 69.2853 102.384 69.2 101.062 69.2ZM143.633 47.184H147.889V61.808H143.633V47.184ZM146.737 52.72H151.825V56.176H146.737V52.72ZM125.777 48.496H130.033V59.952H125.777V48.496ZM125.777 57.52H128.241C130.247 57.52 132.337 57.4453 134.513 57.296C136.689 57.1253 138.929 56.816 141.233 56.368L141.713 59.792C139.324 60.2827 136.999 60.6133 134.737 60.784C132.497 60.9547 130.332 61.04 128.241 61.04H125.777V57.52ZM128.337 63.056H147.889V71.248H132.657V74.736H128.369V68.112H143.633V66.352H128.337V63.056ZM128.369 73.168H148.753V76.528H128.369V73.168ZM173.999 47.216H178.223V76.848H173.999V47.216ZM176.239 58.32H181.455V61.84H176.239V58.32ZM157.551 52.048H160.623V54.512C160.623 56.112 160.559 57.7013 160.431 59.28C160.324 60.8373 160.111 62.3307 159.791 63.76C159.471 65.168 159.001 66.4587 158.383 67.632C157.785 68.784 156.985 69.7547 155.983 70.544L153.359 67.472C154.276 66.768 155.012 65.936 155.567 64.976C156.121 63.9947 156.537 62.928 156.815 61.776C157.113 60.624 157.305 59.44 157.391 58.224C157.497 56.9867 157.551 55.7493 157.551 54.512V52.048ZM158.511 52.048H161.551V54.512C161.551 55.6427 161.593 56.816 161.679 58.032C161.785 59.248 161.988 60.4533 162.287 61.648C162.585 62.8213 163.023 63.9307 163.599 64.976C164.196 66 164.985 66.9067 165.967 67.696L163.695 70.832C162.607 70 161.711 68.9653 161.007 67.728C160.324 66.4907 159.801 65.136 159.439 63.664C159.076 62.192 158.831 60.6773 158.703 59.12C158.575 57.5413 158.511 56.0053 158.511 54.512V52.048ZM165.903 52.048H168.911V54.512C168.911 56.0267 168.836 57.5733 168.687 59.152C168.559 60.7093 168.313 62.224 167.951 63.696C167.609 65.168 167.087 66.5227 166.383 67.76C165.7 68.976 164.804 70 163.695 70.832L161.487 67.696C162.447 66.9067 163.215 66 163.791 64.976C164.388 63.952 164.836 62.8533 165.135 61.68C165.433 60.5067 165.636 59.312 165.743 58.096C165.849 56.8587 165.903 55.664 165.903 54.512V52.048ZM166.831 52.048H169.935V54.512C169.935 55.7493 169.977 56.9867 170.063 58.224C170.169 59.4613 170.361 60.656 170.639 61.808C170.937 62.96 171.364 64.016 171.919 64.976C172.473 65.936 173.209 66.768 174.127 67.472L171.503 70.544C170.5 69.7547 169.689 68.784 169.071 67.632C168.452 66.48 167.983 65.2 167.663 63.792C167.343 62.3627 167.119 60.8587 166.991 59.28C166.884 57.7013 166.831 56.112 166.831 54.512V52.048ZM154.479 49.744H163.215V53.136H154.479V49.744ZM164.207 49.744H172.495V53.136H164.207V49.744Z" fill="#233F00"/>
<defs>
<filter id="filter0_dd_9_26" x="56" y="0" width="128" height="17" filterUnits="userSpaceOnUse" color-interpolation-filters="sRGB">
<feFlood flood-opacity="0" result="BackgroundImageFix"/>
<feColorMatrix in="SourceAlpha" type="matrix" values="0 0 0 0 0 0 0 0 0 0 0 0 0 0 0 0 0 0 127 0" result="hardAlpha"/>
<feMorphology radius="1" operator="dilate" in="SourceAlpha" result="effect1_dropShadow_9_26"/>
<feOffset dy="1"/>
<feGaussianBlur stdDeviation="1.5"/>
<feColorMatrix type="matrix" values="0 0 0 0 0 0 0 0 0 0 0 0 0 0 0 0 0 0 0.15 0"/>
<feBlend mode="normal" in2="BackgroundImageFix" result="effect1_dropShadow_9_26"/>
<feColorMatrix in="SourceAlpha" type="matrix" values="0 0 0 0 0 0 0 0 0 0 0 0 0 0 0 0 0 0 127 0" result="hardAlpha"/>
<feOffset dy="1"/>
<feGaussianBlur stdDeviation="1"/>
<feColorMatrix type="matrix" values="0 0 0 0 0 0 0 0 0 0 0 0 0 0 0 0 0 0 0.3 0"/>
<feBlend mode="normal" in2="effect1_dropShadow_9_26" result="effect2_dropShadow_9_26"/>
<feBlend mode="normal" in="SourceGraphic" in2="effect2_dropShadow_9_26" result="shape"/>
</filter>
</defs>
</svg>
